# AST/ASF file generated using VICON BodyLanguage
# -----------------------------------------------
:version 1.10
:name VICON
:units
  mass 1.0
  length 0.45
  angle deg
:documentation
   .ast/.asf automatically generated from VICON data using
   VICON BodyBuilder and BodyLanguage model FoxedUp or BRILLIANT.MOD
:root
   order TX TY TZ RX RY RZ
   axis XYZ
   position 0 0 0  
   orientation 0 0 0 
:bonedata
  begin
     id 1 
     name lhipjoint
     direction 0.722297 -0.617336 0.311742 
     length 2.6635 
     axis 0 0 0  XYZ
  end
  begin
     id 2 
     name lfemur
     direction 0.34202 -0.939693 0  
     length 7.39349  
     axis 0 0 20  XYZ
    dof rx ry rz
    limits (-160.0 20.0)
           (-70.0 70.0)
           (-60.0 70.0)
  end
  begin
     id 3 
     name ltibia
     direction 0.34202 -0.939693 0   
     length 7.36294   
     axis 0 0 20   XYZ
    dof rx
    limits (-10.0 170.0)
  end
  begin
     id 4 
     name lfoot
     direction 0.104879 -0.288152 0.951824   
     length 2.16981   
     axis -90 7.62852e-016 20   XYZ
    dof rx rz
    limits (-45.0 90.0)
           (-70.0 20.0)
  end
  begin
     id 5 
     name ltoes
     direction 1.53586e-011 -4.21895e-011 1   
     length 1.08218   
     axis -90 7.62852e-016 20   XYZ
    dof rx
    limits (-90.0 20.0)
  end
  begin
     id 6 
     name rhipjoint
     direction -0.75102 -0.589393 0.297631   
     length 2.78977  
     axis 0 0 0  XYZ 
  end
  begin
     id 7 
     name rfemur
     direction -0.34202 -0.939693 0   
     length 7.46076   
     axis 0 0 -20   XYZ
    dof rx ry rz
    limits (-160.0 20.0)
           (-70.0 70.0)
           (-70.0 60.0)
  end
  begin
     id 8 
     name rtibia
     direction -0.34202 -0.939693 0   
     length 7.31726   
     axis 0 0 -20   XYZ
    dof rx
    limits (-10.0 170.0)
 end
 begin
     id 9 
     name rfoot
     direction -0.107991 -0.296704 0.948844   
     length 2.09388  
     axis -90 -7.62852e-016 -20   XYZ
    dof rx rz
    limits (-45.0 90.0)
           (-20.0 70.0)
  end
  begin
     id 10 
     name rtoes
     direction -1.53559e-011 -4.21911e-011 1   
     length 1.04433   
     axis -90 -7.62852e-016 -20   XYZ
    dof rx
    limits (-90.0 20.0)
  end
  begin
     id 11 
     name lowerback
     direction 0.0165164 0.98272 0.184358   
     length 1.71896   
     axis 0 0 0   XYZ
    dof rx ry rz
    limits (-20.0 45.0)
           (-30.0 30.0)
           (-30.0 30.0)
  end
  begin
     id 12 
     name upperback
     direction -0.00887249 0.992297 0.123566   
     length 1.71504   
     axis 0 0 0   XYZ
    dof rx ry rz
    limits (-20.0 45.0)
           (-30.0 30.0)
           (-30.0 30.0)
  end
  begin
     id 13 
     name thorax
     direction -0.0157026 0.998908 0.0440032   
     length 1.77022   
     axis 0 0 0   XYZ
    dof rx ry rz
    limits (-20.0 45.0)
           (-30.0 30.0)
           (-30.0 30.0)
  end
  begin
     id 14 
     name lowerneck
     direction -0.0238856 0.998137 0.0561411   
     length 1.89341   
     axis 0 0 0   XYZ
    dof rx ry rz
    limits (-20.0 45.0)
           (-30.0 30.0)
           (-30.0 30.0)
  end
  begin
     id 15 
     name upperneck
     direction 0.0276574 0.952253 -0.304056   
     length 1.86999   
     axis 0 0 0   XYZ
    dof rx ry rz
    limits (-20.0 45.0)
           (-30.0 30.0)
           (-30.0 30.0)
  end
  begin
     id 16
     name head
     direction 0.00800083 0.994258 -0.106712  
     length 1.91492  
     axis 0 0 0   XYZ
    dof rx ry rz
    limits (-20.0 45.0)
           (-30.0 30.0)
           (-30.0 30.0)
  end
  begin
     id 17 
     name lclavicle
     direction 0.97203 0.225407 0.06595  
     length 3.34889  
     axis 0 0 0   XYZ
    dof ry rz
    limits (-20.0 10.0)
           (0.0 20.0)
  end
  begin
     id 18 
     name lhumerus
     direction 1 -4.48973e-011 2.20267e-027   
     length 4.85645   
     axis 180 -30 -90   XYZ
    dof rx ry rz
    limits (-60.0 90.0)
           (-90.0 90.0)
           (-90.0 90.0)
  end
  begin
     id 19
     name lradius
     direction 1 -4.4897e-011 4.60472e-027   
     length 2.79874   
     axis 180 -30 -90   XYZ
    dof rx
    limits (-10.0 170.0)
  end
  begin
     id 20
     name lwrist
     direction 1 -4.48952e-011 1.14928e-026   
     length 1.39937   
     axis -6.29373e-015 90 90   XYZ
    dof ry
    limits (-180.0 0.0)
 end
  begin
     id 21 
     name lhand
     direction 1 -4.48967e-011 2.29886e-026   
     length 0.573398   
     axis -1.46689e-014 90 90   XYZ
    dof rx rz
    limits (-90.0 90.0)
           (-45.0 45.0)
  end
  begin
     id 22 
     name lfingers
     direction 1 -4.48955e-011 4.59726e-026   
     length 0.462289   
     axis -2.93383e-014 90 90   XYZ
    dof rx
    limits (0.0 90.0)
  end
  begin
     id 23
     name lthumb
     direction 0.707107 -6.34866e-011 0.707107   
     length 0.663757   
     axis -90 45 5.69224e-014   XYZ
    dof rx rz
    limits (-45.0 45.0)
           (-45.0 45.0)
  end
  begin
     id 24 
     name rclavicle
     direction -0.981571 0.157346 0.108443   
     length 3.35257  
     axis 0 0 0   XYZ 
    dof ry rz
    limits (-10.0 20.0)
           (-20.0 0.0)
  end
  begin
     id 25 
     name rhumerus
     direction -1 -4.48967e-011 8.58308e-029  
     length 4.67018   
     axis 180 30 90   XYZ
    dof rx ry rz
    limits (-90.0 60.0)
           (-90.0 90.0)
           (-90.0 90.0)
  end
  begin
     id 26 
     name rradius
     direction -1 -4.48958e-011 4.52548e-027   
     length 2.65534   
     axis 180 30 90   XYZ
    dof rx
    limits (-10.0 170.0)
  end
  begin
     id 27 
     name rwrist
     direction -1 -4.48977e-011 1.14952e-026   
     length 1.32767   
     axis -6.29373e-015 -90 -90   XYZ
    dof ry
    limits (-180.0 0.0)
  end
  begin
     id 28
     name rhand
     direction -1 -4.48924e-011 2.29804e-026   
     length 0.594069   
     axis -1.46689e-014 -90 -90   XYZ
    dof rx rz
    limits (-90.0 90.0)
           (-45.0 45.0)
  end
  begin
     id 29
     name rfingers
     direction -1 -4.48998e-011 4.59888e-026   
     length 0.478954   
     axis -2.93383e-014 -90 -90   XYZ
    dof rx
    limits (0.0 90.0)
  end
  begin
     id 30
     name rthumb
     direction -0.707107 -6.34933e-011 0.707107   
     length 0.687685   
     axis -90 -45 -5.69224e-014   XYZ
    dof rx rz
    limits (-45.0 45.0)
           (-45.0 45.0)
  end
:hierarchy
  begin
    root lhipjoint rhipjoint lowerback
    lhipjoint lfemur
    lfemur ltibia
    ltibia lfoot
    lfoot ltoes
    rhipjoint rfemur
    rfemur rtibia
    rtibia rfoot
    rfoot rtoes
    lowerback upperback
    upperback thorax
    thorax lowerneck lclavicle rclavicle
    lowerneck upperneck
    upperneck head
    lclavicle lhumerus
    lhumerus lradius
    lradius lwrist
    lwrist lhand lthumb
    lhand lfingers
    rclavicle rhumerus
    rhumerus rradius
    rradius rwrist
    rwrist rhand rthumb
    rhand rfingers
  end

#!OML:ASF E:\pregnant2\Project 1\Capture day 1\Session 1\pregnant2.ASF
:FULLY-SPECIFIED
:DEGREES
288
root 7.71476 10.2435 15.5441 7.89341 2.05051 4.05889
lowerback 9.73152 -1.53742 -4.58095
upperback -11.0721 -3.17029 -1.27508
thorax -18.0035 -0.968674 1.87865
lowerneck -14.1905 -4.81591 -6.88714
upperneck 30.9604 -6.69206 4.59246
head 13.1315 -3.19858 1.92918
rclavicle 1.65985e-014 2.56432e-014
rhumerus -26.4242 65.1008 -96.5265
rradius 60.2422
rwrist 4.94186
rhand -8.1029 -6.32229
rfingers 7.12502
rthumb 17.8098 -35.5267
lclavicle 1.65985e-014 2.56432e-014
lhumerus -22.3116 -65.8107 91.3883
lradius 59.4737
lwrist -3.80615
lhand -1.474 19.8158
lfingers 7.12502
lthumb 24.1778 48.3119
rfemur -95.2329 -9.43244 13.4442
rtibia 75.4658
rfoot 12.9099 -4.56792
rtoes 4.36398
lfemur -91.9358 -0.598346 -19.1695
ltibia 67.204
lfoot 15.0753 -5.39512
ltoes -18.3498
289
root 7.71665 10.2441 15.5444 7.91389 2.0482 4.01425
lowerback 9.6728 -1.51804 -4.48954
upperback -11.0686 -3.12373 -1.28349
thorax -17.9663 -0.961571 1.80453
lowerneck -14.1914 -4.76017 -6.78259
upperneck 31.1922 -6.61393 4.479
head 13.2145 -3.1664 1.88166
rclavicle 2.38542e-014 -1.59028e-015
rhumerus -26.0441 65.6981 -95.4568
rradius 60.9697
rwrist 5.02415
rhand -8.03465 -6.39699
rfingers 7.12502
rthumb 17.8755 -35.5955
lclavicle 2.38542e-014 -1.59028e-015
lhumerus -21.7951 -66.5384 90.1574
lradius 60.3564
lwrist -3.83871
lhand -1.64573 19.8714
lfingers 7.12502
lthumb 24.0131 48.3893
rfemur -95.261 -9.43505 13.5146
rtibia 75.4888
rfoot 12.7241 -4.54463
rtoes 4.08275
lfemur -91.9665 -0.604162 -19.1096
ltibia 67.2142
lfoot 15.0762 -5.38558
ltoes -18.3181
290
root 7.71862 10.2479 15.5471 8.00869 2.04653 3.93287
lowerback 9.46167 -1.50463 -4.36875
upperback -11.0782 -3.0682 -1.27545
thorax -17.8433 -0.955415 1.72531
lowerneck -14.1856 -4.69864 -6.67916
upperneck 31.4394 -6.52584 4.35991
head 13.3024 -3.13085 1.83383
rclavicle 4.42296e-015 1.98785e-014
rhumerus -25.6486 66.2696 -94.3355
rradius 61.7262
rwrist 5.08702
rhand -7.9367 -6.47658
rfingers 7.12502
rthumb 17.9697 -35.6664
lclavicle 4.42296e-015 1.98785e-014
lhumerus -21.2603 -67.1972 88.883
lradius 61.2573
lwrist -3.87745
lhand -1.74514 19.9178
lfingers 7.12502
lthumb 23.9178 48.4482
rfemur -95.3442 -9.43283 13.6339
rtibia 75.5024
rfoot 12.5153 -4.52546
rtoes 3.76199
lfemur -92.0645 -0.600198 -19.0087
ltibia 67.2221
lfoot 15.0727 -5.37287
ltoes -18.2994
291
root 7.72083 10.2549 15.5519 8.17053 2.04922 3.81722
lowerback 9.11154 -1.4986 -4.21231
upperback -11.0994 -3.00697 -1.25535
thorax -17.6424 -0.95239 1.63405
lowerneck -14.1734 -4.63045 -6.57139
upperneck 31.7003 -6.42743 4.23397
head 13.3944 -3.09129 1.78431
rclavicle -2.94698e-014 5.56597e-015
rhumerus -25.2671 66.8165 -93.1977
rradius 62.5141
rwrist 5.10543
rhand -7.8496 -6.6007
rfingers 7.12502
rthumb 18.0535 -35.7828
lclavicle -2.94698e-014 5.56597e-015
lhumerus -20.7282 -67.7884 87.5806
lradius 62.1797
lwrist -3.90586
lhand -1.79768 19.9664
lfingers 7.12502
lthumb 23.8674 48.5035
rfemur -95.4753 -9.4309 13.7995
rtibia 75.5066
rfoot 12.2865 -4.50757
rtoes 3.43285
lfemur -92.2225 -0.591425 -18.8709
ltibia 67.2251
lfoot 15.0639 -5.36264
ltoes -18.3011
292
root 7.72323 10.2646 15.5581 8.37826 2.0658 3.67078
lowerback 8.66001 -1.5021 -4.02055
upperback -11.1273 -2.94664 -1.22417
thorax -17.3829 -0.954612 1.53292
lowerneck -14.1588 -4.55547 -6.45431
upperneck 31.9761 -6.31688 4.09312
head 13.4913 -3.04736 1.72922
rclavicle -1.60022e-014 -4.57205e-015
rhumerus -24.9074 67.3419 -92.0543
rradius 63.3327
rwrist 5.10616
rhand -7.80827 -6.79091
rfingers 7.12502
rthumb 18.0933 -35.9694
lclavicle -1.60022e-014 -4.57205e-015
lhumerus -20.2079 -68.314 86.2591
lradius 63.1269
lwrist -3.90834
lhand -1.7938 20.0216
lfingers 7.12502
lthumb 23.8712 48.5582
rfemur -95.6346 -9.43718 14.0054
rtibia 75.5064
rfoot 12.0361 -4.48817
rtoes 3.11778
lfemur -92.4212 -0.587041 -18.6987
ltibia 67.2199
lfoot 15.0574 -5.35287
ltoes -18.3018
293
root 7.72589 10.2753 15.5647 8.5973 2.09618 3.50783
lowerback 8.17822 -1.51254 -3.80081
upperback -11.1564 -2.89137 -1.19011
thorax -17.106 -0.962312 1.42011
lowerneck -14.1443 -4.47348 -6.3263
upperneck 32.2665 -6.19581 3.94262
head 13.594 -2.99884 1.67
rclavicle 1.17283e-014 1.80894e-014
rhumerus -24.5733 67.8336 -90.9171
rradius 64.1749
rwrist 5.11394
rhand -7.78784 -7.04518
rfingers 7.12502
rthumb 18.113 -36.2218
lclavicle 1.17283e-014 1.80894e-014
lhumerus -19.7172 -68.7776 84.9304
lradius 64.104
lwrist -3.8709
lhand -1.74288 20.0782
lfingers 7.12502
lthumb 23.92 48.6083
rfemur -95.7991 -9.45582 14.2365
rtibia 75.5105
rfoot 11.768 -4.46028
rtoes 2.8264
lfemur -92.6299 -0.590163 -18.51
ltibia 67.2096
lfoot 15.0529 -5.34847
ltoes -18.3133
